<svg width="16" height="6" viewBox="0 0 16 6" fill="none" xmlns="http://www.w3.org/2000/svg">
    <path d="M3.00181 3.8031L1.44727 5.25513C1.38311 5.31221 1.30424 5.34212 1.22359 5.33994C1.14295 5.33776 1.06534 5.30362 1.00353 5.24313L0.978181 5.21632C0.952148 5.19077 0.931414 5.15867 0.917536 5.12243C0.903659 5.08618 0.896999 5.04674 0.898058 5.00706C0.900821 4.96614 0.911468 4.92648 0.929203 4.89103C0.946939 4.85559 0.971304 4.82528 1.00048 4.80237L1.93932 4.03201C1.9859 3.99379 2.02084 3.93924 2.03906 3.87626C2.05728 3.81329 2.05784 3.74518 2.04065 3.68181C2.02346 3.61844 1.98942 3.56312 1.94347 3.52387C1.89751 3.48462 1.84204 3.46348 1.7851 3.46353L0.631306 3.46353C0.466674 3.46353 0.322266 3.31743 0.322266 3.15085C0.322266 2.98427 0.466674 2.83818 0.631306 2.83818L1.7851 2.83817C1.84202 2.83817 1.89747 2.817 1.94339 2.77773C1.98931 2.73846 2.02331 2.68314 2.04048 2.61978C2.05764 2.55643 2.05707 2.48834 2.03885 2.42539C2.02062 2.36244 1.98569 2.3079 1.93912 2.26969L1.00269 1.50148C0.972953 1.47854 0.948069 1.44802 0.929914 1.41222C0.91176 1.37642 0.90081 1.33627 0.89789 1.2948C0.896867 1.25497 0.903601 1.21538 0.917584 1.17903C0.931567 1.14267 0.952435 1.11049 0.978616 1.08492L1.00256 1.05955C1.06442 0.998735 1.14219 0.964347 1.22305 0.962059C1.30391 0.959771 1.38302 0.989719 1.44733 1.04697L3.00084 2.49779C3.00084 2.49779 3.00161 3.78977 3.00181 3.8031ZM5.14369 5.65039C4.75299 5.62902 4.38077 5.44995 4.09061 5.14378C3.73848 4.77791 3.53655 4.27469 3.53655 3.76319L3.53655 2.49126C3.53655 1.98707 3.72559 1.51309 4.06892 1.15648C4.24528 0.970888 4.45325 0.830895 4.67919 0.745676C4.90514 0.660457 5.14396 0.631937 5.38001 0.661983L7.01869 0.889806L7.01869 3.15085C7.01869 3.23378 7.04691 3.31331 7.09715 3.37195C7.14738 3.43059 7.21551 3.46353 7.28655 3.46353C7.35759 3.46353 7.42572 3.43059 7.47595 3.37195C7.52619 3.31331 7.55441 3.23378 7.55441 3.15085L7.55441 0.964263L10.7687 1.41108L10.7687 3.15085C10.7687 3.23378 10.7969 3.31331 10.8471 3.37195C10.8974 3.43059 10.9655 3.46353 11.0366 3.46353C11.1076 3.46353 11.1757 3.43059 11.226 3.37195C11.2762 3.31331 11.3044 3.23378 11.3044 3.15085L11.3044 1.48553L14.4709 1.9257C14.9324 1.98855 15.3223 2.54973 15.3223 3.15116C15.3223 3.73649 14.9404 4.26476 14.4691 4.32898L13.1794 4.5149L13.1794 2.83817C13.1794 2.75525 13.1512 2.67572 13.101 2.61708C13.0507 2.55844 12.9826 2.5255 12.9116 2.5255C12.8405 2.5255 12.7724 2.55844 12.7221 2.61708C12.6719 2.67572 12.6437 2.75525 12.6437 2.83817L12.6437 4.59233L9.42941 5.05607L9.42941 2.83817C9.42941 2.75525 9.40119 2.67572 9.35095 2.61708C9.30072 2.55844 9.23259 2.5255 9.16155 2.5255C9.09051 2.5255 9.02238 2.55844 8.97215 2.61708C8.92191 2.67572 8.89369 2.75525 8.89369 2.83817L8.89369 5.13334L5.67941 5.59708L5.67941 3.46353C5.67941 3.3806 5.65119 3.30107 5.60095 3.24243C5.55072 3.18379 5.48259 3.15085 5.41155 3.15085C5.34051 3.15085 5.27238 3.18379 5.22215 3.24243C5.17191 3.30107 5.14369 3.3806 5.14369 3.46353L5.14369 5.65039ZM5.41155 2.5255C5.46453 2.5255 5.51632 2.50716 5.56036 2.4728C5.60441 2.43845 5.63875 2.38961 5.65902 2.33248C5.67929 2.27534 5.6846 2.21247 5.67426 2.15182C5.66393 2.09117 5.63842 2.03545 5.60095 1.99172C5.56349 1.948 5.51577 1.91822 5.46381 1.90615C5.41185 1.89409 5.35799 1.90028 5.30905 1.92395C5.2601 1.94761 5.21827 1.98769 5.18884 2.03911C5.1594 2.09053 5.14369 2.15098 5.14369 2.21282C5.14369 2.29575 5.17191 2.37528 5.22215 2.43392C5.27238 2.49256 5.34051 2.5255 5.41155 2.5255Z" fill="#F2994A" />
</svg>
    