<svg width="16" height="17" viewBox="0 0 16 17" fill="none" xmlns="http://www.w3.org/2000/svg">
    <path d="M4.2917 14.6496H10.1629C10.9031 14.6496 11.5046 14.048 11.5046 13.3079V13.0731C11.5046 12.851 11.3244 12.6708 11.1023 12.6708C10.8802 12.6708 10.7 12.851 10.7 13.0731V13.3079C10.7 13.6039 10.4589 13.845 10.1629 13.845H4.2917C3.99568 13.845 3.75455 13.6039 3.75455 13.3079V6.96691C3.75455 6.6709 3.99567 6.42984 4.2917 6.42984H4.5265C4.74857 6.42984 4.92877 6.24964 4.92877 6.02757C4.92877 5.8055 4.74857 5.62529 4.5265 5.62529H4.2917C3.55154 5.62529 2.95 6.22674 2.95 6.96691V13.3079C2.95 14.048 3.55154 14.6496 4.2917 14.6496Z" fill="#C0BAF7" stroke="#C0BAF7" stroke-width="0.1" />
    <path d="M7.10988 11.8313H12.0417C12.7819 11.8313 13.3833 11.2297 13.3833 10.4896V4.61836C13.3833 3.87821 12.7819 3.27666 12.0417 3.27666H7.10988C6.36972 3.27666 5.76818 3.8782 5.76818 4.61836V10.4896C5.76818 11.2297 6.36972 11.8313 7.10988 11.8313ZM6.57273 4.61836C6.57273 4.32234 6.81386 4.08121 7.10988 4.08121H12.0417C12.3377 4.08121 12.5788 4.32233 12.5788 4.61836V10.4896C12.5788 10.7856 12.3377 11.0267 12.0417 11.0267H7.10988C6.81386 11.0267 6.57273 10.7856 6.57273 10.4896V4.61836Z" fill="#C0BAF7" stroke="#C0BAF7" stroke-width="0.1" />
</svg>
    