<svg width="10" height="11" viewBox="0 0 10 11" fill="none" xmlns="http://www.w3.org/2000/svg">
    <path fill-rule="evenodd" clip-rule="evenodd" d="M4.42298 4.05358C4.43514 3.8955 4.56696 3.77344 4.7255 3.77344C4.88138 3.77344 5.0119 3.89155 5.02741 4.04666L5.27786 6.55122L7.07417 7.57767C7.16577 7.63002 7.22231 7.72744 7.22231 7.83295C7.22231 8.02681 7.03797 8.16761 6.85094 8.1166L4.56541 7.49327C4.33403 7.43017 4.18005 7.21167 4.19844 6.97254L4.42298 4.05358Z" fill="#8C83C0" />
    <path opacity="0.3" fill-rule="evenodd" clip-rule="evenodd" d="M5 10.9629C2.23858 10.9629 0 8.72431 0 5.96289C0 3.20147 2.23858 0.962891 5 0.962891C7.76142 0.962891 10 3.20147 10 5.96289C10 8.72431 7.76142 10.9629 5 10.9629Z" fill="#7873A4" />
</svg>
    