<svg width="17" height="17" viewBox="0 0 17 17" fill="none" xmlns="http://www.w3.org/2000/svg">
    <path d="M8.2749 0.72168C3.8589 0.72168 0.274902 4.30568 0.274902 8.72168C0.274902 13.1377 3.8589 16.7217 8.2749 16.7217C12.6909 16.7217 16.2749 13.1377 16.2749 8.72168C16.2749 4.30568 12.6909 0.72168 8.2749 0.72168ZM8.2749 15.1217C4.7469 15.1217 1.8749 12.2497 1.8749 8.72168C1.8749 5.19368 4.7469 2.32168 8.2749 2.32168C11.8029 2.32168 14.6749 5.19368 14.6749 8.72168C14.6749 12.2497 11.8029 15.1217 8.2749 15.1217ZM8.5229 8.03368C7.1069 7.67368 6.6509 7.28168 6.6509 6.69768C6.6509 6.02568 7.2829 5.55368 8.3309 5.55368C9.4349 5.55368 9.8509 6.08168 9.8829 6.86568H11.2509C11.2109 5.79368 10.5549 4.80968 9.2589 4.48968V3.12168H7.3949V4.47368C6.1869 4.72968 5.2189 5.51368 5.2189 6.72168C5.2189 8.15368 6.4109 8.87368 8.1469 9.28968C9.7069 9.65768 10.0189 10.2097 10.0189 10.7857C10.0189 11.2097 9.7069 11.8977 8.3389 11.8977C7.0589 11.8977 6.5549 11.3217 6.4829 10.5857H5.1069C5.1869 11.9457 6.1949 12.7137 7.3949 12.9617V14.3217H9.2669V12.9857C10.4829 12.7537 11.4429 12.0577 11.4509 10.7697C11.4429 9.00968 9.9309 8.40168 8.5229 8.03368Z" fill="#75CAB5" />
</svg>
    