<svg width="14" height="10" viewBox="0 0 14 10" fill="none" xmlns="http://www.w3.org/2000/svg">
    <path d="M7.44956 7.0547L7.14263 7.22194L6.83569 7.0547C5.75022 6.46262 5.401 5.65396 5.29976 5.07983C4.98449 3.29398 6.59348 1.44214 6.66141 1.36397L7.14263 0.817383L7.62385 1.36397C8.72214 2.6122 9.17965 3.80981 8.98293 4.92348C8.73303 6.33959 7.5021 7.02587 7.44956 7.0547ZM7.16121 2.84736C6.80494 3.41637 6.44547 4.20325 6.56273 4.8594C6.62232 5.19325 6.80494 5.47519 7.11892 5.71676C7.34703 5.51299 7.64243 5.16633 7.72253 4.68895C7.81544 4.14493 7.62641 3.52787 7.16121 2.84736Z" fill="#0E9F6E" />
    <path d="M10.3331 9.48371C10.3325 9.48371 10.3325 9.48371 10.3331 9.48371C10.2312 9.48371 10.1268 9.47923 10.0179 9.4709L9.66927 9.44334L9.50331 9.13577C9.47512 9.08387 8.81896 7.83692 9.3822 6.51372C9.82498 5.47374 10.8624 4.72018 12.4637 4.27356L13.1653 4.07812L13.2698 4.799C13.2839 4.89832 13.6088 7.241 12.4515 8.57766C11.9383 9.17037 11.2052 9.48371 10.3331 9.48371ZM10.5657 7.00455C10.3722 7.44925 10.4305 7.90036 10.5106 8.19511C10.9246 8.16243 11.2437 8.01377 11.4801 7.7408C11.9075 7.24869 12.0286 6.4208 12.0414 5.76849C11.2808 6.08568 10.7855 6.49962 10.5657 7.00455Z" fill="#0E9F6E" />
    <path d="M4.61009 9.13577L4.44413 9.44334L4.09555 9.4709C3.98662 9.47923 3.88153 9.48371 3.78029 9.48371C2.90755 9.48371 2.1745 9.17037 1.66124 8.57766C0.503355 7.23972 0.828228 4.89768 0.842967 4.799L0.947414 4.07812L1.64907 4.27356C3.25101 4.72018 4.28842 5.47373 4.73184 6.51436C5.29444 7.83756 4.63829 9.08387 4.61009 9.13577ZM3.55153 7.01672C3.33815 6.51436 2.83194 6.09144 2.07069 5.77106C2.08287 6.42272 2.20462 7.24997 2.63137 7.74144C2.86846 8.01441 3.18757 8.16371 3.60343 8.19575C3.68353 7.90484 3.74056 7.4595 3.55153 7.01672Z" fill="#0E9F6E" />
</svg>
    