<svg width="15" height="14" viewBox="0 0 15 14" fill="none" xmlns="http://www.w3.org/2000/svg">
    <path d="M5.66667 0.886902L5.8698 0.8881C8.90374 0.923998 11.3333 1.76549 11.3333 3.22024L11.3339 5.60896C13.2254 5.92657 14.6667 7.57177 14.6667 9.55357C14.6667 11.7627 12.8758 13.5536 10.6667 13.5536C10.0659 13.5536 9.48337 13.4205 8.95325 13.1689C8.01817 13.417 6.87181 13.5536 5.66667 13.5536C2.60677 13.5536 0.11066 12.7437 0.00357938 11.3163L0 11.2202V3.22024L0.00357938 3.12416C0.11066 1.69677 2.60677 0.886902 5.66667 0.886902ZM1.33307 10.1384L1.33333 11.2202C1.33333 11.3284 1.51431 11.4638 1.83399 11.5997L2.02186 11.6737C2.0889 11.6983 2.16027 11.7228 2.23572 11.7469L2.47404 11.8183C2.51571 11.8299 2.55834 11.8415 2.60189 11.8529L2.87405 11.9197C3.10966 11.9738 3.36678 12.0234 3.64145 12.066L3.97921 12.1137L4.33229 12.1538C4.75256 12.1958 5.20098 12.2202 5.66667 12.2202C6.26495 12.2202 6.84447 12.1834 7.38029 12.1146L7.57267 12.0876L7.50083 11.9988L7.4395 11.9173C7.4232 11.8951 7.40714 11.8727 7.39131 11.8502L7.50083 11.9988C7.43801 11.9175 7.37832 11.8339 7.3219 11.748C7.31059 11.7308 7.29976 11.714 7.28906 11.6972C7.27157 11.6697 7.25417 11.6415 7.23713 11.6132C7.22037 11.5853 7.20399 11.5573 7.18795 11.5291C7.17637 11.5088 7.16516 11.4886 7.15411 11.4684C7.1368 11.4367 7.11985 11.4046 7.10333 11.3723C7.08923 11.3447 7.07534 11.3167 7.06177 11.2886C7.04789 11.2598 7.03449 11.2311 7.02141 11.2022C7.00965 11.1763 6.9981 11.15 6.98682 11.1236C6.97342 11.0922 6.96052 11.0609 6.94801 11.0294C6.93807 11.0044 6.92828 10.979 6.91874 10.9535C6.90489 10.9164 6.89161 10.8792 6.87887 10.8418C6.87852 10.8407 6.87822 10.8398 6.87791 10.8389C6.48543 10.8709 6.07914 10.8869 5.66667 10.8869C3.92883 10.8869 2.37284 10.6257 1.33307 10.1384ZM10.6667 6.8869C9.89901 6.8869 9.18533 7.21214 8.68212 7.77234C8.24526 8.25866 8 8.88615 8 9.55357C8 9.70703 8.0129 9.85859 8.03832 10.0073C8.17335 10.7965 8.66026 11.482 9.35358 11.8752C9.75052 12.1003 10.1991 12.2202 10.6667 12.2202C12.1394 12.2202 13.3333 11.0263 13.3333 9.55357C13.3333 8.08082 12.1394 6.8869 10.6667 6.8869ZM11.0667 7.35357C11.3386 7.55749 11.4103 7.92923 11.246 8.21688L11.2 8.2869L10.7553 8.88023L11.8775 9.25445C12.2838 9.38988 12.4528 9.86248 12.2437 10.2211L12.2 10.2869L11.2 11.6202C10.9791 11.9148 10.5612 11.9745 10.2667 11.7536C9.99477 11.5496 9.92299 11.1779 10.0873 10.8903L10.1333 10.8202L10.5787 10.2269L9.45585 9.85269C9.04955 9.71726 8.88051 9.24466 9.08965 8.88603L9.13333 8.82023L10.1333 7.4869C10.3542 7.19235 10.7721 7.13265 11.0667 7.35357ZM1.33307 7.47178L1.33333 8.55357C1.33333 8.6617 1.51431 8.79711 1.83399 8.93304L2.02186 9.00707C2.0889 9.03166 2.16027 9.0561 2.23572 9.08024L2.47404 9.15159C2.51571 9.16327 2.55834 9.17484 2.60189 9.18627L2.87405 9.25306C3.10966 9.30708 3.36678 9.35669 3.64145 9.39936L3.97921 9.44708L4.33229 9.48718C4.75256 9.52914 5.20098 9.55357 5.66667 9.55357C6.00686 9.55357 6.34184 9.54173 6.66746 9.51858C6.67089 9.0503 6.75582 8.59501 6.91302 8.16879C6.5099 8.20327 6.09174 8.22023 5.66667 8.22023C3.92883 8.22023 2.37284 7.95901 1.33307 7.47178ZM10.0009 4.8048C8.96116 5.29223 7.40488 5.55357 5.66667 5.55357C3.92883 5.55357 2.37284 5.29234 1.33307 4.80512L1.33333 5.8869C1.33333 5.99503 1.51431 6.13044 1.83399 6.26637L2.02186 6.34041C2.0889 6.36499 2.16027 6.38944 2.23572 6.41358L2.47404 6.48492C2.51571 6.4966 2.55834 6.50817 2.60189 6.5196L2.87405 6.58639C3.10966 6.64042 3.36678 6.69002 3.64145 6.7327L3.97921 6.78042L4.33229 6.82051C4.75256 6.86247 5.20098 6.8869 5.66667 6.8869C6.44294 6.8869 7.19006 6.82516 7.85582 6.70978C8.41815 6.1513 9.13332 5.77332 9.91403 5.62448L10 5.61023L10.0009 4.8048ZM5.66667 2.22024C5.20098 2.22024 4.75256 2.24466 4.33229 2.28662L3.97921 2.32672L3.64145 2.37444C3.36678 2.41711 3.10966 2.46672 2.87404 2.52074L2.60189 2.58753C2.55834 2.59896 2.51571 2.61053 2.47403 2.62222L2.23571 2.69356C2.16027 2.7177 2.08889 2.74214 2.02186 2.76673L1.83398 2.84076C1.51431 2.97669 1.33333 3.11211 1.33333 3.22024C1.33333 3.32836 1.51431 3.46378 1.83399 3.59971L2.02186 3.67374C2.0889 3.69833 2.16027 3.72277 2.23572 3.74691L2.47404 3.81825C2.51571 3.82994 2.55834 3.84151 2.60189 3.85294L2.87405 3.91973C3.10966 3.97375 3.36678 4.02336 3.64145 4.06603L3.97921 4.11375L4.33229 4.15385C4.75256 4.19581 5.20098 4.22023 5.66667 4.22023C6.13235 4.22023 6.58077 4.19581 7.00104 4.15385L7.35412 4.11375L7.69188 4.06603C7.96655 4.02336 8.22367 3.97375 8.45928 3.91973L8.73144 3.85294C8.77499 3.84151 8.81762 3.82994 8.8593 3.81825L9.09762 3.74691C9.17307 3.72277 9.24444 3.69833 9.31147 3.67374L9.49935 3.59971C9.81902 3.46378 10 3.32836 10 3.22024C10 3.11211 9.81903 2.97669 9.49935 2.84076L9.31148 2.76673C9.24444 2.74214 9.17307 2.7177 9.09762 2.69356L8.8593 2.62222C8.81763 2.61053 8.775 2.59896 8.73144 2.58753L8.45929 2.52074C8.22368 2.46672 7.96655 2.41711 7.69189 2.37444L7.35412 2.32672L7.00104 2.28662C6.58078 2.24466 6.13235 2.22024 5.66667 2.22024Z" fill="#75CAB5" />
</svg>
    