<?xml version="1.0" encoding="UTF-8"?>
<svg width="402px" height="402px" viewBox="0 0 402 402" version="1.1" xmlns="http://www.w3.org/2000/svg" xmlns:xlink="http://www.w3.org/1999/xlink">
    <defs>
        <path d="M0.3838,270.755 L0.3838,200.999 C0.3838,90.202 90.202,0.3838 200.999,0.3838 C255.649,0.3838 305.195,22.2359 341.377,57.679 L298.729,84.329 C272.29,62.158 238.203,48.808 200.999,48.808 C116.946,48.808 48.808,116.946 48.808,200.999 L97.232,200.999 L0.3838,270.755 Z M102.535,317.05 C129.076,339.592 163.45,353.192 201.001,353.192 C285.053,353.192 353.192,285.054 353.192,201.001 L304.767,201.001 L401.612,130.094 L401.616,201.001 C401.616,311.798 311.797,401.616 201.001,401.616 C146.012,401.616 96.19,379.492 59.951,343.66 L102.535,317.05 Z M277.96,267.584 L222.618,267.584 L201.001,238.382 L179.383,267.584 L124.04,267.584 L174.179,202.15 L124.04,134.417 L175.923,134.417 L201.001,167.146 L226.078,134.418 L277.962,134.417 L227.822,202.15 L277.96,267.584 Z" id="path-1"></path>
    </defs>
    <g id="Page-1" stroke="none" stroke-width="1" fill="none" fill-rule="evenodd">
        <g id="swapr-black">
            <g id="Shape">
                <mask id="mask-2" fill="white">
                    <use xlink:href="#path-1"></use>
                </mask>
                <use id="Mask" fill="#000000" fill-rule="nonzero" xlink:href="#path-1"></use>
            </g>
        </g>
    </g>
</svg>