<svg width="28" height="28" viewBox="0 0 28 28" fill="none" xmlns="http://www.w3.org/2000/svg">
    <g clip-path="url(#clip0_287_3356)">
        <path fill-rule="evenodd" clip-rule="evenodd" d="M0 18.3328V13.6029C0 6.09021 6.09021 0 13.6029 0C17.3085 0 20.668 1.48171 23.1213 3.88497L20.2295 5.69195C18.4368 4.18866 16.1256 3.28345 13.6029 3.28345C7.90362 3.28345 3.28345 7.90362 3.28345 13.6029H6.56689L0 18.3328ZM6.92652 21.4718C8.72616 23.0002 11.0569 23.9224 13.6031 23.9224C19.3023 23.9224 23.9225 19.3022 23.9225 13.6029H20.639L27.2057 8.79502L27.2059 13.6029C27.2059 21.1156 21.1157 27.2058 13.6031 27.2058C9.87449 27.2058 6.49629 25.7057 4.03909 23.276L6.92652 21.4718ZM18.8213 18.1177H15.0687L13.6031 16.1377L12.1374 18.1177H8.38486L11.7844 13.681L8.38455 9.0882H11.9026L13.6031 11.3075L15.3036 9.0882H18.8216L15.4217 13.681L18.8213 18.1177Z" fill="white" />
    </g>
    <defs>
        <clipPath id="clip0_287_3356">
            <rect width="27.2059" height="27.2059" fill="white" />
        </clipPath>
    </defs>
</svg>
    