<svg width="15" height="15" viewBox="0 0 15 15" fill="none" xmlns="http://www.w3.org/2000/svg">
    <g clip-path="url(#clip0_582_14583)">
        <path d="M13.2662 11.8604H13.9662C14.1662 11.8604 14.3662 11.6604 14.3662 11.4604V4.26035C14.3662 4.06035 14.1662 3.86035 13.9662 3.86035H13.2662C13.0662 3.86035 12.8662 4.06035 12.8662 4.26035V11.4604C12.8662 11.6604 13.0662 11.8604 13.2662 11.8604ZM7.26621 11.8604H7.96621C8.16621 11.8604 8.36621 11.6604 8.36621 11.4604V5.26035C8.36621 5.06035 8.16621 4.86035 7.96621 4.86035H7.26621C7.06621 4.86035 6.86621 5.06035 6.86621 5.26035V11.4604C6.86621 11.6604 7.06621 11.8604 7.26621 11.8604ZM10.2662 11.8604H10.9662C11.1662 11.8604 11.3662 11.6604 11.3662 11.4604V7.26035C11.3662 7.06035 11.1662 6.86035 10.9662 6.86035H10.2662C10.0662 6.86035 9.86621 7.06035 9.86621 7.26035V11.4604C9.86621 11.6604 10.0662 11.8604 10.2662 11.8604ZM16.3662 13.3604H2.36621V3.36035C2.36621 3.0841 2.14246 2.86035 1.86621 2.86035H1.36621C1.08996 2.86035 0.866211 3.0841 0.866211 3.36035V13.8604C0.866211 14.4125 1.31402 14.8604 1.86621 14.8604H16.3662C16.6425 14.8604 16.8662 14.6366 16.8662 14.3604V13.8604C16.8662 13.5841 16.6425 13.3604 16.3662 13.3604ZM4.26621 11.8604H4.96621C5.16621 11.8604 5.36621 11.6604 5.36621 11.4604V9.26035C5.36621 9.06035 5.16621 8.86035 4.96621 8.86035H4.26621C4.06621 8.86035 3.86621 9.06035 3.86621 9.26035V11.4604C3.86621 11.6604 4.06621 11.8604 4.26621 11.8604Z" fill="#75CAB5" />
    </g>
    <defs>
        <clipPath id="clip0_582_14583">
            <rect width="15" height="14" fill="white" transform="translate(0.866211 0.860352)" />
        </clipPath>
    </defs>
</svg>
    