<svg width="17" height="17" viewBox="0 0 17 17" fill="none" xmlns="http://www.w3.org/2000/svg">
    <path fill-rule="evenodd" clip-rule="evenodd" d="M11.3333 0.317771C11.6811 0.116943 12.1259 0.236124 12.3268 0.58397L13.7964 3.12941H15.4116C16.2149 3.12941 16.8661 3.78061 16.8661 4.58394V14.7657C16.8661 15.569 16.2149 16.2202 15.4116 16.2202H2.32075C1.51744 16.2202 0.866211 15.569 0.866211 14.7657V4.58394C0.866211 3.7806 1.51744 3.12941 2.32075 3.12941H6.46338L11.3333 0.317771ZM12.1137 3.124L11.4307 1.94107L9.38695 3.12104L12.1137 3.124ZM15.4116 12.2202H12.957C11.5349 12.2202 10.3207 11.1136 10.3207 9.67481C10.3207 8.23599 11.5349 7.12937 12.957 7.12937H15.4116V4.58394H2.32075V14.7657H15.4116V12.2202ZM15.4116 8.58391H12.957C12.2705 8.58391 11.7752 9.10536 11.7752 9.67481C11.7752 10.2443 12.2705 10.7657 12.957 10.7657H15.4116V8.58391Z" fill="#75CAB5" />
</svg>
    