<svg width="24" height="24" viewBox="0 0 24 24" fill="none" xmlns="http://www.w3.org/2000/svg">
<path d="M7.83 18.12C7 16.96 7 15.62 7 14.29C8.67 15.29 10.33 16.29 11.17 17.46L11.5 18.02V15.74C10 14.84 8.58 13.92 7.83 12.87C7 11.71 7 10.37 7 9.04C8.67 10.04 10.33 11.04 11.17 12.21L11.5 12.79V10.49C10 9.59 8.58 8.67 7.83 7.62C7 6.46 7 5.12 7 3.79C8.67 4.79 10.33 5.79 11.17 6.96C11.27 7.1 11.36 7.25 11.44 7.41C11.27 6.79 11.16 6.21 11.15 5.61C11.14 4.1 11.8 2.55 12.46 1C13.15 2.48 13.84 3.97 13.85 5.48C13.86 6.11 13.75 6.75 13.57 7.38C13.65 7.24 13.73 7.1 13.83 6.96C14.67 5.79 16.33 4.79 18 3.79C18 5.12 18 6.46 17.17 7.62C16.42 8.67 15 9.59 13.5 10.49V12.79L13.83 12.21C14.67 11.04 16.33 10.04 18 9.04C18 10.37 18 11.71 17.17 12.87C16.42 13.92 15 14.84 13.5 15.74V18.02L13.83 17.46C14.67 16.29 16.33 15.29 18 14.29C18 15.62 18 16.96 17.17 18.12C16.42 19.17 15 20.09 13.5 20.99V22.79H11.5V20.99C10 20.09 8.58 19.17 7.83 18.12Z" fill="#FFFFFF"/>
</svg>
