<?xml version="1.0" encoding="UTF-8"?>
<svg version="1.1" viewBox="0 0 512 512" xmlns="http://www.w3.org/2000/svg" xmlns:xlink="http://www.w3.org/1999/xlink">
<title>Mask</title>
<desc>Created with Sketch.</desc>
<defs>
<path id="a" d="m256 0c141.38-2.5972e-14 256 114.62 256 256s-114.62 256-256 256-256-114.62-256-256 114.62-256 256-256zm-200.62 325.76 96.848-69.756h-48.424c0-84.053 68.138-152.19 152.19-152.19 37.204 0 71.291 13.35 97.73 35.521l42.648-26.65c-36.182-35.443-85.728-57.295-140.38-57.295-110.8 0-200.62 89.818-200.62 200.62v69.756zm102.15 46.295-42.584 26.61c36.239 35.832 86.061 57.956 141.05 57.956 110.8 0 200.62-89.818 200.62-200.62l-4e-3 -70.907-96.845 70.907h48.425c0 84.053-68.139 152.19-152.19 152.19-37.551 0-71.925-13.6-98.466-36.142zm175.42-49.466-50.138-65.434 50.14-67.733-51.884 1e-3 -25.077 32.728-25.078-32.729h-51.883l50.139 67.733-50.139 65.434h55.343l21.618-29.202 21.617 29.202h55.342z"/>
</defs>
<g fill="none" fill-rule="evenodd">
<mask fill="white">
<use xlink:href="#a"/>
</mask>
<use fill="#FFFFFF" fill-rule="nonzero" xlink:href="#a"/>
</g>
</svg>