<?xml version="1.0" encoding="UTF-8"?>
<svg width="151px" height="38px" viewBox="0 0 151 38" version="1.1" xmlns="http://www.w3.org/2000/svg" xmlns:xlink="http://www.w3.org/1999/xlink">
        <path d="M0.96,29 L0.96,0.6 L11.28,0.6 C14.3733488,0.6 16.9599896,1.233327 19.04,2.5 C21.1200104,3.766673 22.6799948,5.4733226 23.72,7.62 C24.7600052,9.7666774 25.28,12.1466536 25.28,14.76 C25.28,17.6400144 24.7066724,20.146656 23.56,22.28 C22.4133276,24.413344 20.7933438,26.0666608 18.7,27.24 C16.6066562,28.4133392 14.1333476,29 11.28,29 L0.96,29 Z M19.72,14.76 C19.72,12.9199908 19.38667,11.300007 18.72,9.9 C18.05333,8.499993 17.0933396,7.4066706 15.84,6.62 C14.5866604,5.8333294 13.0666756,5.44 11.28,5.44 L6.48,5.44 L6.48,24.16 L11.28,24.16 C13.0933424,24.16 14.6266604,23.7533374 15.88,22.94 C17.1333396,22.1266626 18.0866634,21.0066738 18.74,19.58 C19.3933366,18.1533262 19.72,16.5466756 19.72,14.76 Z M31.32,0.6 L38.36,11.08 L45.36,0.6 L51.36,0.6 L41.52,15 L51.04,29 L45.04,29 L38.36,18.92 L31.64,29 L25.6,29 L35.12,15 L25.28,0.6 L31.32,0.6 Z M61.2007731,29.4 C59.4140975,29.4 57.7074479,29.1066696 56.0807731,28.52 C54.4540983,27.9333304 53.0541123,27.0666724 51.8807731,25.92 L53.8007731,22.44 C55.0541127,23.4533384 56.2874337,24.1999976 57.5007731,24.68 C58.7141125,25.1600024 59.8807675,25.4 61.0007731,25.4 C62.0407783,25.4 62.8741033,25.2133352 63.5007731,24.84 C64.1274429,24.4666648 64.4407731,23.9066704 64.4407731,23.16 C64.4407731,22.6533308 64.2674415,22.2600014 63.9207731,21.98 C63.5741047,21.6999986 63.0741097,21.4533344 62.4207731,21.24 C61.7674365,21.0266656 60.9741111,20.786668 60.0407731,20.52 C58.4940987,20.0133308 57.2007783,19.5200024 56.1607731,19.04 C55.1207679,18.5599976 54.3407757,17.953337 53.8207731,17.22 C53.3007705,16.486663 53.0407731,15.5466724 53.0407731,14.4 C53.0407731,13.0133264 53.3941029,11.820005 54.1007731,10.82 C54.8074433,9.819995 55.7941001,9.0400028 57.0607731,8.48 C58.3274461,7.9199972 59.8140979,7.64 61.5207731,7.64 C63.0141139,7.64 64.4274331,7.873331 65.7607731,8.34 C67.0941131,8.806669 68.3074343,9.5599948 69.4007731,10.6 L67.2407731,14 C66.1741011,13.1733292 65.1607779,12.5666686 64.2007731,12.18 C63.2407683,11.7933314 62.2674447,11.6 61.2807731,11.6 C60.7207703,11.6 60.1941089,11.666666 59.7007731,11.8 C59.2074373,11.933334 58.8074413,12.1533318 58.5007731,12.46 C58.1941049,12.7666682 58.0407731,13.1999972 58.0407731,13.76 C58.0407731,14.2666692 58.1807717,14.6599986 58.4607731,14.94 C58.7407745,15.2200014 59.1674369,15.4666656 59.7407731,15.68 C60.3141093,15.8933344 61.0141023,16.133332 61.8407731,16.4 C63.5207815,16.8800024 64.9407673,17.3733308 66.1007731,17.88 C67.2607789,18.3866692 68.1341035,19.006663 68.7207731,19.74 C69.3074427,20.473337 69.6007731,21.4799936 69.6007731,22.76 C69.6007731,24.8400104 68.8407807,26.4666608 67.3207731,27.64 C65.8007655,28.8133392 63.7607859,29.4 61.2007731,29.4 Z M98.7552757,8.04 L103.835276,8.04 L95.0752757,29 L90.5952757,29 L87.0752757,20 L83.6352757,29 L79.1152757,29 L70.3952757,8.04 L75.4352757,8.04 L81.6752757,23.88 L84.1152757,17.04 L80.4752757,8.08 L84.9152757,8.08 L87.0752757,14.48 L89.2752757,8.08 L93.7152757,8.08 L90.0752757,17.04 L92.5552757,23.88 L98.7552757,8.04 Z M104.374861,22.8 C104.374861,21.4399932 104.754857,20.2466718 105.514861,19.22 C106.274864,18.1933282 107.334854,17.4000028 108.694861,16.84 C110.054867,16.2799972 111.614852,16 113.374861,16 C114.254865,16 115.148189,16.066666 116.054861,16.2 C116.961532,16.333334 117.748191,16.5466652 118.414861,16.84 L118.414861,15.72 C118.414861,14.38666 118.021531,13.3600036 117.234861,12.64 C116.44819,11.9199964 115.281535,11.56 113.734861,11.56 C112.588188,11.56 111.494866,11.759998 110.454861,12.16 C109.414855,12.560002 108.321533,13.1466628 107.174861,13.92 L105.454861,10.4 C106.841534,9.4933288 108.26152,8.8133356 109.714861,8.36 C111.168201,7.9066644 112.694853,7.68 114.294861,7.68 C117.281542,7.68 119.608186,8.4266592 121.274861,9.92 C122.941536,11.4133408 123.774861,13.5466528 123.774861,16.32 L123.774861,23 C123.774861,23.5600028 123.87486,23.9599988 124.074861,24.2 C124.274862,24.4400012 124.601525,24.5866664 125.054861,24.64 L125.054861,29 C124.574858,29.0800004 124.141529,29.1466664 123.754861,29.2 C123.368192,29.2533336 123.041529,29.28 122.774861,29.28 C121.708189,29.28 120.90153,29.0400024 120.354861,28.56 C119.808191,28.0799976 119.468195,27.4933368 119.334861,26.8 L119.214861,25.72 C118.308189,26.8933392 117.174867,27.7999968 115.814861,28.44 C114.454854,29.0800032 113.068201,29.4 111.654861,29.4 C110.268187,29.4 109.021533,29.1133362 107.914861,28.54 C106.808188,27.9666638 105.94153,27.180005 105.314861,26.18 C104.688191,25.179995 104.374861,24.0533396 104.374861,22.8 Z M117.414861,23.88 C117.708195,23.5599984 117.948193,23.2400016 118.134861,22.92 C118.321528,22.5999984 118.414861,22.306668 118.414861,22.04 L118.414861,19.92 C117.774857,19.653332 117.081531,19.4466674 116.334861,19.3 C115.58819,19.1533326 114.881531,19.08 114.214861,19.08 C112.828187,19.08 111.688198,19.379997 110.794861,19.98 C109.901523,20.580003 109.454861,21.3733284 109.454861,22.36 C109.454861,22.893336 109.601526,23.3999976 109.894861,23.88 C110.188195,24.3600024 110.614858,24.7466652 111.174861,25.04 C111.734863,25.3333348 112.401523,25.48 113.174861,25.48 C113.974865,25.48 114.761523,25.3266682 115.534861,25.02 C116.308198,24.7133318 116.934858,24.3333356 117.414861,23.88 Z M141.3466,29.4 C139.719925,29.4 138.286606,29.033337 137.0466,28.3 C135.806594,27.566663 134.839937,26.5733396 134.1466,25.32 L134.1466,37.52 L128.7866,37.52 L128.7866,8.04 L133.4666,8.04 L133.4666,11.64 C134.266604,10.4133272 135.279927,9.4466702 136.5066,8.74 C137.733273,8.0333298 139.133259,7.68 140.7066,7.68 C142.119941,7.68 143.419928,7.9599972 144.6066,8.52 C145.793273,9.0800028 146.826596,9.859995 147.7066,10.86 C148.586605,11.860005 149.273264,13.0066602 149.7666,14.3 C150.259936,15.5933398 150.5066,16.9866592 150.5066,18.48 C150.5066,20.5066768 150.113271,22.3466584 149.3266,24 C148.53993,25.6533416 147.45994,26.9666618 146.0866,27.94 C144.71326,28.9133382 143.133276,29.4 141.3466,29.4 Z M139.5466,24.84 C140.373271,24.84 141.11993,24.6666684 141.7866,24.32 C142.45327,23.9733316 143.033264,23.500003 143.5266,22.9 C144.019936,22.299997 144.393266,21.6200038 144.6466,20.86 C144.899935,20.0999962 145.0266,19.3066708 145.0266,18.48 C145.0266,17.5999956 144.886602,16.7866704 144.6066,16.04 C144.326599,15.2933296 143.919936,14.6333362 143.3866,14.06 C142.853264,13.4866638 142.23327,13.0400016 141.5266,12.72 C140.81993,12.3999984 140.053271,12.24 139.2266,12.24 C138.719931,12.24 138.206603,12.3266658 137.6866,12.5 C137.166598,12.6733342 136.666603,12.9199984 136.1866,13.24 C135.706598,13.5600016 135.286602,13.9333312 134.9266,14.36 C134.566598,14.7866688 134.306601,15.2533308 134.1466,15.76 L134.1466,20.68 C134.466602,21.4533372 134.899931,22.1599968 135.4466,22.8 C135.99327,23.4400032 136.626597,23.9399982 137.3466,24.3 C138.066604,24.6600018 138.79993,24.84 139.5466,24.84 Z" id="DXswap" fill="#000000"></path>
</svg>