<?xml version="1.0" encoding="UTF-8"?>
<svg viewBox="0 0 64 28" xmlns="http://www.w3.org/2000/svg">
<path d="m0 7.5v11.375h3.5234c0.99479-0.0052 1.888-0.2344 2.6797-0.6875 0.79167-0.4531 1.4036-1.0911 1.8359-1.9141 0.4375-0.8229 0.65625-1.763 0.65625-2.8203v-0.5234c0-1.0573-0.22135-2-0.66406-2.8281-0.44271-0.83337-1.0599-1.474-1.8516-1.9219-0.78646-0.45313-1.6797-0.67969-2.6797-0.67969h-3.5zm2.3438 9.4922v-7.5938h1.1562c0.92188 0 1.6224 0.29948 2.1016 0.89846 0.47917 0.5937 0.71875 1.4687 0.71875 2.625v0.6015c-0.01041 1.1146-0.25781 1.9714-0.74219 2.5704-0.48437 0.5989-1.1849 0.8984-2.1016 0.8984h-1.1328zm15.669-9.4922-2.2786 3.9219-2.2786-3.9219h-2.8796l3.5389 5.6406-3.6307 5.7344h2.9129l2.3371-3.9844 2.337 3.9844h2.913l-3.6308-5.7344 3.539-5.6406h-2.8796z" clip-rule="evenodd" fill="#fff" fill-rule="evenodd"/>
<path d="m27.894 15.891c0.276 0.1563 0.4141 0.3724 0.4141 0.6485 0 0.2656-0.112 0.4817-0.336 0.6484-0.2187 0.1615-0.5442 0.2422-0.9765 0.2422-0.4636 0-0.8334-0.1068-1.1094-0.3203-0.2761-0.2136-0.4245-0.5209-0.4453-0.9219h-2.1407c0 0.5104 0.1563 0.987 0.4688 1.4297 0.3125 0.4375 0.7422 0.7838 1.2891 1.039 0.552 0.25 1.1823 0.375 1.8906 0.375 1.0469 0 1.901-0.2369 2.5625-0.7109 0.6614-0.4792 0.9922-1.1042 0.9922-1.875 0-1.0781-0.5964-1.8359-1.7891-2.2734-0.3854-0.1407-0.8594-0.2657-1.4219-0.375-0.5625-0.1146-0.9635-0.2474-1.2031-0.3985-0.2344-0.1562-0.3516-0.3593-0.3516-0.6093 0-0.2657 0.1042-0.4844 0.3125-0.6563 0.2084-0.1719 0.5027-0.2578 0.8829-0.2578 0.4427 0 0.7682 0.1068 0.9765 0.3203 0.2084 0.2083 0.3125 0.474 0.3125 0.7969h2.2578c0-0.8073-0.3229-1.4636-0.9687-1.9688-0.6406-0.5052-1.4974-0.7578-2.5703-0.7578-1.0052 0-1.8203 0.2526-2.4453 0.7578-0.6198 0.5-0.9297 1.125-0.9297 1.875 0 1.2865 1.0052 2.1407 3.0156 2.5625 0.6042 0.125 1.0417 0.2683 1.3125 0.4297zm22.514 2.2266c0.0469 0.3021 0.1224 0.5547 0.2266 0.7578h2.2812v-0.1328c-0.2187-0.4115-0.3307-1.0182-0.3359-1.8203v-3.6641c0-0.9479-0.3073-1.6823-0.9219-2.2031-0.6093-0.5261-1.4349-0.7891-2.4765-0.7891-0.6875 0-1.3073 0.1198-1.8594 0.3594-0.5521 0.2344-0.9792 0.5599-1.2813 0.9766-0.302 0.4166-0.4531 0.8698-0.4531 1.3593h2.2578c0-0.3177 0.1068-0.5677 0.3203-0.75 0.2188-0.1823 0.5183-0.2734 0.8985-0.2734 0.4323 0 0.7474 0.1172 0.9453 0.3516 0.2031 0.2343 0.3047 0.5468 0.3047 0.9375v0.4843h-1.0391c-1.2552 0.0052-2.2161 0.2474-2.8828 0.7266-0.6614 0.4792-0.9922 1.1667-0.9922 2.0625 0 0.7292 0.2709 1.3333 0.8125 1.8125 0.5469 0.4792 1.2344 0.7187 2.0625 0.7187 0.875 0 1.586-0.3046 2.1328-0.914zm-0.7187-1.0313c-0.2813 0.1459-0.5886 0.2188-0.9219 0.2188-0.3437 0-0.6146-0.0912-0.8125-0.2735-0.1979-0.1822-0.2969-0.414-0.2969-0.6953l0.0078-0.1328c0.073-0.7812 0.6745-1.1719 1.8047-1.1719h0.8438v1.4532c-0.1354 0.25-0.3438 0.4505-0.625 0.6015zm-9.3891-1.2812 1.1094-5.3828h2.1797l-2.1562 8.4531h-1.8907l-1.6015-5.3203-1.6016 5.3203h-1.8828l-2.1563-8.4531h2.1797l1.1016 5.375 1.5469-5.375h1.6328l1.539 5.3828zm21.519 2.0547c0.5938-0.7865 0.8907-1.8308 0.8907-3.1328v-0.1172c0-1.3542-0.2891-2.4167-0.8672-3.1875-0.5781-0.7709-1.388-1.1563-2.4297-1.1563-0.8802 0-1.5938 0.3282-2.1406 0.9844l-0.0782-0.8281h-2.0937v11.703h2.2578v-3.9844c0.5261 0.5938 1.2162 0.8906 2.0703 0.8906 1.0052 0 1.8021-0.3906 2.3906-1.1718zm-1.789-5.1172c0.2812 0.4271 0.4219 1.0338 0.4219 1.8203 0 1.7656-0.5391 2.6484-1.6172 2.6484-0.7084 0-1.2005-0.2786-1.4766-0.8359v-3.4609c0.2656-0.5417 0.7526-0.8125 1.4609-0.8125 0.5313 0 0.9349 0.2135 1.211 0.6406z" clip-rule="evenodd" fill="#fff" fill-opacity=".65" fill-rule="evenodd"/>
</svg>
