<svg width="69" height="24" viewBox="0 0 69 24" fill="none" xmlns="http://www.w3.org/2000/svg">
<path d="M14.12 5.08504L11.3524 5.95632C11.2328 5.25588 10.8826 4.61523 10.3017 4.03437C9.72088 3.45351 8.88376 3.16308 7.79038 3.16308C6.88492 3.16308 6.13323 3.41934 5.53528 3.93186C4.95443 4.44438 4.664 5.05941 4.664 5.77694C4.664 7.02408 5.37299 7.8014 6.79096 8.10891L9.40482 8.64706C10.9766 8.95457 12.1895 9.57814 13.0437 10.5178C13.8979 11.4574 14.325 12.5764 14.325 13.8748C14.325 15.3782 13.7442 16.6766 12.5825 17.7699C11.4378 18.8462 9.87463 19.3844 7.89288 19.3844C5.75738 19.3844 4.09168 18.8292 2.8958 17.7187C1.69991 16.5911 1.02509 15.2842 0.871338 13.7979L3.74146 12.9779C3.84396 14.0029 4.25398 14.8657 4.97151 15.5661C5.68904 16.2665 6.66283 16.6168 7.89288 16.6168C8.95209 16.6168 9.76359 16.3861 10.3274 15.9249C10.9082 15.4465 11.1986 14.84 11.1986 14.1054C11.1986 13.5075 10.9851 12.995 10.558 12.5679C10.1309 12.1237 9.53295 11.8162 8.76417 11.6453L6.20156 11.1072C4.78359 10.8167 3.65604 10.2273 2.81892 9.33897C1.99889 8.4506 1.58887 7.34013 1.58887 6.00758C1.58887 4.4871 2.19535 3.18017 3.40832 2.08679C4.62129 0.993406 6.07343 0.446716 7.76475 0.446716C9.69525 0.446716 11.173 0.916528 12.1981 1.85615C13.2231 2.77869 13.8638 3.85499 14.12 5.08504Z" fill="black"/>
<path d="M22.6287 6.5201H25.7038L28.6508 15.1561L31.1365 6.5201H34.1604L30.1627 19H27.1901L24.0894 10.0309L21.0655 19H18.016L13.9671 6.5201H17.1447L19.6817 15.1561L22.6287 6.5201Z" fill="black"/>
<path d="M34.302 15.6174C34.302 14.5581 34.6436 13.7125 35.327 13.0804C36.0274 12.4312 36.9414 12.0212 38.069 11.8503L41.2723 11.3634C41.8873 11.278 42.1948 10.979 42.1948 10.4665C42.1948 9.90274 41.9983 9.45001 41.6054 9.10833C41.2125 8.74957 40.6231 8.57018 39.8372 8.57018C39.0855 8.57018 38.4876 8.78373 38.0434 9.21084C37.5992 9.62085 37.3429 10.159 37.2746 10.8253L34.5582 10.2103C34.6778 9.0827 35.216 8.126 36.1727 7.34013C37.1294 6.53718 38.3423 6.13571 39.8116 6.13571C41.6225 6.13571 42.955 6.57135 43.8092 7.44264C44.6805 8.31392 45.1162 9.43293 45.1162 10.7997V17.0012C45.1162 17.8212 45.1674 18.4875 45.2699 19H42.5023C42.4169 18.7437 42.3742 18.2141 42.3742 17.4112C41.5541 18.7267 40.2728 19.3844 38.5303 19.3844C37.266 19.3844 36.241 19.0171 35.4551 18.2825C34.6863 17.5308 34.302 16.6424 34.302 15.6174ZM39.094 17.0524C40.0166 17.0524 40.7597 16.8047 41.3235 16.3093C41.9044 15.7967 42.1948 14.9682 42.1948 13.8235V13.2598L38.9403 13.7467C37.8298 13.9346 37.2746 14.4983 37.2746 15.438C37.2746 15.8822 37.4369 16.2665 37.7615 16.5911C38.0861 16.8987 38.5303 17.0524 39.094 17.0524Z" fill="black"/>
<path d="M50.3753 23.869H47.4283V6.5201H50.2984V8.21142C50.623 7.64764 51.1356 7.17783 51.836 6.80198C52.5364 6.42613 53.3479 6.23821 54.2705 6.23821C56.0643 6.23821 57.4737 6.85324 58.4988 8.08329C59.5238 9.29626 60.0363 10.8509 60.0363 12.7472C60.0363 14.6436 59.4982 16.2153 58.4219 17.4624C57.3456 18.6925 55.9276 19.3075 54.168 19.3075C53.3138 19.3075 52.5535 19.1452 51.8873 18.8206C51.221 18.496 50.717 18.086 50.3753 17.5906V23.869ZM57.0637 12.7472C57.0637 11.5855 56.7562 10.6544 56.1412 9.95399C55.5262 9.23646 54.7147 8.8777 53.7067 8.8777C52.7158 8.8777 51.9043 9.23646 51.2722 9.95399C50.6572 10.6544 50.3497 11.5855 50.3497 12.7472C50.3497 13.926 50.6572 14.8742 51.2722 15.5917C51.9043 16.3093 52.7158 16.668 53.7067 16.668C54.6976 16.668 55.5005 16.3093 56.1156 15.5917C56.7477 14.8742 57.0637 13.926 57.0637 12.7472Z" fill="black"/>
<path d="M68.9162 6.44322V9.4671C68.5745 9.41584 68.2499 9.39022 67.9424 9.39022C65.7044 9.39022 64.5854 10.6117 64.5854 13.0547V19H61.6128V6.5201H64.5085V8.51893C64.7989 7.85265 65.2687 7.33159 65.9179 6.95574C66.5671 6.56281 67.3017 6.36634 68.1218 6.36634C68.3951 6.36634 68.6599 6.39197 68.9162 6.44322Z" fill="black"/>
</svg>
